<svg width="44" height="24" viewBox="0 0 44 24" fill="none" xmlns="http://www.w3.org/2000/svg">
<path d="M22.2499 16.8134C22.5189 16.8134 22.7372 16.5941 22.7372 16.3231V0.990337C22.7372 0.719603 22.5189 0.499996 22.2499 0.499996C21.9808 0.499996 21.7628 0.719603 21.7628 0.990337V16.3231C21.7628 16.5941 21.9808 16.8134 22.2499 16.8134ZM23.8201 17.1169C23.8994 17.1657 23.9872 17.189 24.0742 17.189C24.238 17.189 24.3981 17.1058 24.4898 16.9549L32.7186 3.44173C32.8593 3.21077 32.7873 2.90878 32.5577 2.76759C32.3284 2.62612 32.0283 2.69856 31.8877 2.92924L23.6588 16.4427C23.5182 16.6734 23.5905 16.9754 23.8201 17.1169ZM25.1559 18.2092C25.2508 18.3447 25.4016 18.4168 25.5546 18.4168C25.6517 18.4168 25.7494 18.3878 25.8347 18.3276L39.1621 8.88228C39.3821 8.72632 39.4349 8.42036 39.2798 8.19906C39.1245 7.97775 38.8207 7.92492 38.6008 8.0806L25.2737 17.5259C25.0537 17.6819 25.0009 17.9876 25.1559 18.2092ZM5.33818 8.88228L18.6653 18.3276C18.7506 18.3878 18.8483 18.4168 18.9454 18.4168C19.0984 18.4168 19.2492 18.3447 19.3441 18.2092C19.4991 17.9876 19.4463 17.6819 19.2263 17.5259L5.89923 8.0806C5.67956 7.9252 5.37573 7.97775 5.22015 8.19906C5.06541 8.42036 5.11794 8.72632 5.33818 8.88228ZM20.0102 16.9549C20.1019 17.1058 20.262 17.189 20.4261 17.189C20.5128 17.189 20.6006 17.1657 20.6802 17.1169C20.9095 16.9754 20.9818 16.6734 20.8412 16.4427L12.6123 2.92924C12.4717 2.69856 12.1716 2.62612 11.9423 2.76759C11.7127 2.90878 11.6407 3.21077 11.7814 3.44173L20.0102 16.9549ZM43.4791 12.8919L26.3836 21.9407C25.4038 23.2347 23.8768 24 22.2501 24C20.6235 24 19.0965 23.235 18.1161 21.9407L1.0209 12.8919C0.544836 12.6396 0.361578 12.0467 0.612314 11.5678C0.86305 11.0885 1.45205 10.9044 1.92839 11.1564L19.2246 20.3117C19.3644 20.3856 19.4841 20.4927 19.5737 20.6233C20.1889 21.523 21.1647 22.0389 22.2501 22.0389C23.3352 22.0389 24.3108 21.523 24.9261 20.6236C25.0156 20.4927 25.1353 20.3858 25.2751 20.3117L42.5716 11.1564C43.0479 10.9044 43.6369 11.0885 43.8877 11.5678C44.1384 12.0467 43.9552 12.6396 43.4791 12.8919Z" fill="white"/>
</svg>
